<?xml version="1.0" standalone="no"?>
<!DOCTYPE svg PUBLIC "-//W3C//DTD SVG 20010904//EN"
 "http://www.w3.org/TR/2001/REC-SVG-20010904/DTD/svg10.dtd">
<svg version="1.0" xmlns="http://www.w3.org/2000/svg"
 width="700.000000pt" height="700.000000pt" viewBox="0 0 700.000000 700.000000"
 preserveAspectRatio="xMidYMid meet">
<metadata>
Created by potrace 1.11, written by Peter Selinger 2001-2013
</metadata>
<g transform="translate(0.000000,700.000000) scale(0.100000,-0.100000)"
fill="#000000" stroke="none">
<path d="M2985 3823 c-366 -20 -659 -197 -800 -481 -57 -115 -76 -200 -82
-352 -11 -288 67 -507 245 -687 131 -133 267 -213 649 -384 369 -165 454 -221
506 -338 27 -59 28 -178 3 -234 -21 -47 -89 -123 -130 -145 -109 -59 -239 -81
-378 -65 -145 17 -236 54 -348 139 -69 53 -95 80 -163 176 l-55 77 -266 -155
-266 -155 19 -37 c64 -125 215 -294 342 -385 141 -100 321 -175 514 -214 112
-22 480 -25 590 -5 454 83 746 349 806 733 19 122 7 346 -25 452 -84 283 -266
464 -661 657 -88 43 -205 97 -260 120 -162 68 -326 156 -381 204 -123 108
-137 298 -31 413 49 53 92 76 172 93 172 36 344 -40 449 -199 30 -44 52 -69
59 -64 29 17 483 306 489 312 11 9 -80 142 -151 221 -172 193 -400 289 -716
303 -44 1 -102 2 -130 0z"/>
<path d="M4480 2185 l0 -1565 985 0 985 0 0 315 0 315 -640 0 -640 0 0 1250 0
1250 -345 0 -345 0 0 -1565z"/>
</g>
</svg>
